<svg width="32" height="39" viewBox="0 0 32 39" fill="none" xmlns="http://www.w3.org/2000/svg">
<path d="M17.5152 2.23874C24.4646 2.23874 30.0346 7.96686 30.0346 14.9162C30.0346 17.6606 29.5034 19.425 27.9127 21.6537C25.8046 24.5837 23.7752 26.3212 23.7752 29.9281V32.6869C23.7752 36.1081 20.8309 38.7344 17.4102 38.7344C13.9484 38.7344 11.0446 35.99 11.0446 32.5281C11.0446 31.7056 11.654 30.9887 12.4771 30.9887C13.7234 30.9887 13.6702 32.5937 14.1215 33.7481C14.6784 35.1537 15.8315 35.9756 17.3571 35.9756C19.3065 35.9756 21.0171 34.5306 21.0171 32.5806V29.5037C21.0171 23.2837 27.3827 21.0831 27.3827 14.8631C27.3827 9.35936 22.9127 4.89061 17.4096 4.89061C14.0009 4.89061 11.6009 6.00436 9.55773 8.70999C8.35086 10.315 7.80711 11.495 7.54211 13.4837C7.38274 14.7169 7.35773 16.3487 6.11023 16.3487C5.28773 16.3487 4.67773 15.6325 4.67773 14.81C4.67711 7.80874 10.5127 2.23874 17.5152 2.23874Z" fill="black"/>
<path d="M17.1429 6.0575C22.0766 6.0575 26.3198 9.82437 26.3198 14.7575C26.3198 15.3937 25.8954 16.03 25.2591 16.03C24.5691 16.03 24.4104 15.2212 24.3041 14.545C24.0654 13.06 23.9454 12.105 23.1366 10.8325C21.811 8.75 19.8885 8.07375 17.4085 8.07375C15.061 8.07375 13.3904 8.85624 11.9973 10.7256C11.241 11.7344 10.7691 13.0825 10.531 14.3294C10.3454 15.3506 10.5529 16.1369 9.50539 16.1369C8.85539 16.1369 8.49727 15.4606 8.49727 14.81C8.49852 10.0094 12.3441 6.0575 17.1441 6.0575H17.1429ZM1.96852 25.6312L6.55914 30.2219L5.41289 31.3681L0.822266 26.7775L1.96852 25.6312ZM4.27789 23.3225L8.86914 27.9137L7.72227 29.0606L3.13102 24.4694L4.27789 23.3225ZM6.66477 20.9062L11.2554 25.4981L10.1091 26.6444L5.51852 22.0525L6.66539 20.9062H6.66477ZM9.43789 18.2112L14.0285 22.8031L12.8816 23.9494L8.29102 19.3575L9.43789 18.2112Z" fill="black"/>
<path d="M12.0095 15.7869L16.6002 20.3775L15.4539 21.5237L10.8633 16.9331L12.0095 15.7869ZM14.6227 12.9294L19.2133 17.5212L18.0664 18.6675L13.4758 14.0756L14.6227 12.9294ZM27.537 2.80874L29.4008 4.67249L28.1964 5.87687L26.3327 4.01312L27.537 2.80874ZM29.9608 0.368744L31.8239 2.23249L30.6189 3.43687L28.7558 1.57312L29.9608 0.368744Z" fill="black"/>
</svg>
