<svg width="34" height="22" viewBox="0 0 34 22" fill="none" xmlns="http://www.w3.org/2000/svg">
<path d="M1.66667 0C2.07489 5.38509e-05 2.46889 0.149927 2.77395 0.421192C3.07901 0.692457 3.2739 1.06625 3.32167 1.47167L3.33333 1.66667V11.6667H13.3333V3.33333C13.3334 2.92511 13.4833 2.5311 13.7545 2.22605C14.0258 1.92099 14.3996 1.7261 14.805 1.67833L15 1.66667H28.3333C29.6087 1.6666 30.8359 2.15388 31.7638 3.02881C32.6917 3.90374 33.2502 5.10018 33.325 6.37333L33.3333 6.66667V20C33.3329 20.4248 33.1702 20.8334 32.8786 21.1423C32.587 21.4512 32.1884 21.6371 31.7643 21.662C31.3403 21.6868 30.9227 21.5489 30.5969 21.2762C30.2712 21.0036 30.0618 20.6168 30.0117 20.195L30 20V15H3.33333V20C3.33286 20.4248 3.1702 20.8334 2.87859 21.1423C2.58697 21.4512 2.18841 21.6371 1.76434 21.662C1.34027 21.6868 0.922701 21.5489 0.596946 21.2762C0.27119 21.0036 0.0618393 20.6168 0.0116666 20.195L0 20V1.66667C0 1.22464 0.175595 0.800716 0.488155 0.488156C0.800716 0.175595 1.22464 0 1.66667 0Z" fill="#989798"/>
<path d="M8.33333 3.33334C8.98191 3.33354 9.61633 3.52295 10.1589 3.87835C10.7014 4.23376 11.1285 4.73971 11.3877 5.33421C11.647 5.92872 11.7272 6.58594 11.6185 7.22534C11.5098 7.86474 11.2169 8.45854 10.7757 8.93397C10.3346 9.4094 9.76431 9.7458 9.13482 9.90195C8.50532 10.0581 7.84394 10.0272 7.23174 9.81308C6.61953 9.59895 6.0831 9.21087 5.68817 8.69639C5.29324 8.18192 5.05698 7.56342 5.00833 6.91667L5 6.66667L5.00833 6.41667C5.07141 5.57808 5.44912 4.79431 6.06575 4.2225C6.68239 3.65068 7.49237 3.33307 8.33333 3.33334Z" fill="#989798"/>
</svg>
