<svg width="100" height="100" viewBox="0 0 100 100" fill="none" xmlns="http://www.w3.org/2000/svg">
<circle cx="50" cy="50" r="50" fill="#DDECC5"/>
<path d="M64.1888 53.2567C64.1862 53.6448 64.0308 54.0164 63.7563 54.2909C63.4818 54.5653 63.1103 54.7207 62.7221 54.7233H56.8088C56.4205 54.7211 56.0487 54.5659 55.7741 54.2913C55.4995 54.0168 55.3443 53.645 55.3421 53.2567C55.3447 52.8685 55.5001 52.497 55.7746 52.2225C56.0491 51.948 56.4206 51.7926 56.8088 51.79H62.7221C63.11 51.7935 63.4811 51.9491 63.7554 52.2234C64.0297 52.4977 64.1853 52.8688 64.1888 53.2567ZM43.5621 53.2567C43.5599 53.645 43.4047 54.0168 43.1301 54.2913C42.8555 54.5659 42.4838 54.7211 42.0955 54.7233H36.1821C35.7938 54.7211 35.422 54.5659 35.1474 54.2913C34.8729 54.0168 34.7176 53.645 34.7155 53.2567C34.7181 52.8685 34.8734 52.497 35.1479 52.2225C35.4224 51.948 35.7939 51.7926 36.1821 51.79H42.0955C42.4833 51.7931 42.8544 51.9486 43.1286 52.2231C43.4027 52.4975 43.5578 52.8688 43.5605 53.2567H43.5621ZM40.4955 39.645H59.5021L61.8338 45.5817C61.7971 45.5817 61.7605 45.575 61.7188 45.575H38.1621L40.4955 39.645ZM69.9621 44.155C69.8657 43.5761 69.5436 43.059 69.0665 42.7172C68.5895 42.3754 67.9963 42.2368 67.4171 42.3317L67.4305 42.33L63.7921 42.9233C63.7388 42.9334 63.6864 42.9479 63.6355 42.9667L63.6438 42.9633L61.3005 37H38.6905L36.3471 42.9633C36.2998 42.947 36.2513 42.9342 36.2021 42.925L32.5605 42.33C31.9849 42.2396 31.397 42.3791 30.9234 42.7183C30.4497 43.0576 30.1285 43.5694 30.0288 44.1433L30.0271 44.1567C29.9363 44.7322 30.0756 45.3204 30.4149 45.7942C30.7542 46.2679 31.2663 46.5891 31.8405 46.6883L31.8538 46.69L33.9721 47.0383C32.6274 48.3291 31.8484 50.0998 31.8055 51.9633V62.115H39.1388V58.2817H59.8538V62.115H67.1871V56.7017C67.2171 56.575 67.2338 56.43 67.2338 56.28V51.97C67.1933 50.1734 66.4704 48.4596 65.2121 47.1767L65.2138 47.1783L68.1571 46.695C68.7356 46.5982 69.2521 46.2759 69.5933 45.7988C69.9345 45.3217 70.0726 44.7287 69.9771 44.15L69.9788 44.1633L69.9621 44.155Z" fill="#82B62D"/>
</svg>
