<svg width="30" height="27" viewBox="0 0 30 27" fill="none" xmlns="http://www.w3.org/2000/svg">
<path d="M3.33333 10.3333L5.83333 2.83334H24.1667L26.6667 10.3333M24.1667 18.6667C23.5036 18.6667 22.8677 18.4033 22.3989 17.9344C21.9301 17.4656 21.6667 16.8297 21.6667 16.1667C21.6667 15.5036 21.9301 14.8678 22.3989 14.3989C22.8677 13.9301 23.5036 13.6667 24.1667 13.6667C24.8297 13.6667 25.4656 13.9301 25.9344 14.3989C26.4033 14.8678 26.6667 15.5036 26.6667 16.1667C26.6667 16.8297 26.4033 17.4656 25.9344 17.9344C25.4656 18.4033 24.8297 18.6667 24.1667 18.6667ZM5.83333 18.6667C5.17029 18.6667 4.53441 18.4033 4.06557 17.9344C3.59673 17.4656 3.33333 16.8297 3.33333 16.1667C3.33333 15.5036 3.59673 14.8678 4.06557 14.3989C4.53441 13.9301 5.17029 13.6667 5.83333 13.6667C6.49637 13.6667 7.13226 13.9301 7.6011 14.3989C8.06994 14.8678 8.33333 15.5036 8.33333 16.1667C8.33333 16.8297 8.06994 17.4656 7.6011 17.9344C7.13226 18.4033 6.49637 18.6667 5.83333 18.6667ZM26.5333 2.00001C26.2 1.03334 25.2667 0.333344 24.1667 0.333344H5.83333C4.73333 0.333344 3.8 1.03334 3.46667 2.00001L0 12V25.3333C0 25.7754 0.175595 26.1993 0.488155 26.5119C0.800716 26.8244 1.22464 27 1.66667 27H3.33333C3.77536 27 4.19928 26.8244 4.51184 26.5119C4.8244 26.1993 5 25.7754 5 25.3333V23.6667H25V25.3333C25 25.7754 25.1756 26.1993 25.4882 26.5119C25.8007 26.8244 26.2246 27 26.6667 27H28.3333C28.7754 27 29.1993 26.8244 29.5118 26.5119C29.8244 26.1993 30 25.7754 30 25.3333V12L26.5333 2.00001Z" fill="black"/>
</svg>
