<svg width="100" height="100" viewBox="0 0 100 100" fill="none" xmlns="http://www.w3.org/2000/svg">
<circle cx="50" cy="50" r="50" fill="#3D8CCE" fill-opacity="0.2"/>
<path d="M49.25 45.1667C48.9185 45.1667 48.6005 45.2984 48.3661 45.5328C48.1317 45.7672 48 46.0851 48 46.4167C48 46.7482 48.1317 47.0661 48.3661 47.3005C48.6005 47.535 48.9185 47.6667 49.25 47.6667C51.4533 47.6667 53.77 48.9317 54.9333 50.5933C55.0274 50.7278 55.1471 50.8425 55.2855 50.9307C55.424 51.019 55.5784 51.0791 55.7401 51.1076C55.9017 51.1362 56.0674 51.1326 56.2277 51.0971C56.388 51.0616 56.5397 50.9949 56.6742 50.9008C56.8087 50.8067 56.9233 50.687 57.0115 50.5486C57.0998 50.4102 57.1599 50.2558 57.1885 50.0941C57.217 49.9325 57.2134 49.7668 57.178 49.6065C57.1425 49.4462 57.0758 49.2945 56.9817 49.16C55.355 46.8367 52.2783 45.1667 49.25 45.1667ZM45.5 40.1667C45.5 39.0616 45.939 38.0018 46.7204 37.2204C47.5018 36.439 48.5616 36 49.6667 36C50.7717 36 51.8315 36.439 52.6129 37.2204C53.3943 38.0018 53.8333 39.0616 53.8333 40.1667V41.6333C56.6174 42.5173 59.0474 44.2654 60.7707 46.624C62.4939 48.9826 63.4208 51.8289 63.4167 54.75C63.4167 55.0815 63.285 55.3995 63.0506 55.6339C62.8161 55.8683 62.4982 56 62.1667 56H37.1667C36.8351 56 36.5172 55.8683 36.2828 55.6339C36.0484 55.3995 35.9167 55.0815 35.9167 54.75C35.9167 48.6183 39.9533 43.4283 45.5 41.6533V40.1667ZM51.3333 40.1667C51.3333 39.7246 51.1577 39.3007 50.8452 38.9882C50.5326 38.6756 50.1087 38.5 49.6667 38.5C49.2246 38.5 48.8007 38.6756 48.4882 38.9882C48.1756 39.3007 48 39.7246 48 40.1667V41.105C49.1067 40.9684 50.2259 40.9656 51.3333 41.0967V40.1667ZM38.4867 53.5H60.8483C60.2317 47.8733 55.4883 43.5 49.7017 43.5C43.91 43.5 39.1133 47.88 38.4867 53.5ZM36.3333 57.6667C35.4493 57.6667 34.6014 58.0179 33.9763 58.643C33.3512 59.2681 33 60.1159 33 61C33 61.8841 33.3512 62.7319 33.9763 63.357C34.6014 63.9821 35.4493 64.3333 36.3333 64.3333H63C63.8841 64.3333 64.7319 63.9821 65.357 63.357C65.9821 62.7319 66.3333 61.8841 66.3333 61C66.3333 60.1159 65.9821 59.2681 65.357 58.643C64.7319 58.0179 63.8841 57.6667 63 57.6667H36.3333ZM35.5 61C35.5 60.779 35.5878 60.567 35.7441 60.4107C35.9004 60.2545 36.1123 60.1667 36.3333 60.1667H63C63.221 60.1667 63.433 60.2545 63.5893 60.4107C63.7455 60.567 63.8333 60.779 63.8333 61C63.8333 61.221 63.7455 61.433 63.5893 61.5893C63.433 61.7455 63.221 61.8333 63 61.8333H36.3333C36.1123 61.8333 35.9004 61.7455 35.7441 61.5893C35.5878 61.433 35.5 61.221 35.5 61Z" fill="#3D8CCE"/>
</svg>
