<svg width="66" height="45" viewBox="0 0 66 45" fill="none" xmlns="http://www.w3.org/2000/svg">
<path d="M14.2837 16.4375C17.096 16.4375 19.845 17.2714 22.1833 18.8338C24.5215 20.3962 26.344 22.6168 27.4202 25.215C28.4963 27.8131 28.7779 30.672 28.2293 33.4302C27.6807 36.1884 26.3265 38.7219 24.3379 40.7104C22.3494 42.6989 19.8159 44.0532 17.0577 44.6018C14.2995 45.1504 11.4406 44.8688 8.84247 43.7927C6.24433 42.7165 4.02367 40.894 2.46129 38.5558C0.898915 36.2175 0.065 33.4684 0.065 30.6562L0 28.625C0 21.0829 2.99608 13.8497 8.32915 8.51665C13.6622 3.18358 20.8954 0.1875 28.4375 0.1875V8.3125C25.7688 8.30533 23.1253 8.82726 20.6596 9.84812C18.1939 10.869 15.955 12.3685 14.0725 14.26C13.3408 14.9903 12.6658 15.7753 12.0534 16.6081C12.7806 16.4944 13.5241 16.4334 14.2797 16.4334L14.2837 16.4375ZM50.8462 16.4375C53.6584 16.4375 56.4075 17.2714 58.7458 18.8338C61.084 20.3962 62.9065 22.6168 63.9827 25.215C65.0588 27.8131 65.3404 30.672 64.7918 33.4302C64.2431 36.1884 62.8889 38.7219 60.9004 40.7104C58.9119 42.6989 56.3784 44.0532 53.6202 44.6018C50.862 45.1504 48.0031 44.8688 45.405 43.7927C42.8068 42.7165 40.5862 40.894 39.0238 38.5558C37.4614 36.2175 36.6275 33.4684 36.6275 30.6562L36.5625 28.625C36.5625 21.0829 39.5586 13.8497 44.8916 8.51665C50.2247 3.18358 57.4579 0.1875 65 0.1875V8.3125C62.3313 8.30533 59.6877 8.82726 57.2221 9.84812C54.7564 10.869 52.5175 12.3685 50.635 14.26C49.9033 14.9903 49.2283 15.7753 48.6159 16.6081C49.3431 16.4944 50.0866 16.4375 50.8462 16.4375Z" fill="black"/>
</svg>
