<svg width="19" height="19" viewBox="0 0 19 19" fill="none" xmlns="http://www.w3.org/2000/svg">
<path d="M17.499 17.5L11.999 12M0.999023 7.41667C0.999023 8.25932 1.165 9.09371 1.48746 9.87222C1.80993 10.6507 2.28258 11.3581 2.87842 11.9539C3.47426 12.5498 4.18163 13.0224 4.96014 13.3449C5.73864 13.6674 6.57304 13.8333 7.41569 13.8333C8.25834 13.8333 9.09274 13.6674 9.87124 13.3449C10.6497 13.0224 11.3571 12.5498 11.953 11.9539C12.5488 11.3581 13.0214 10.6507 13.3439 9.87222C13.6664 9.09371 13.8324 8.25932 13.8324 7.41667C13.8324 6.57402 13.6664 5.73962 13.3439 4.96111C13.0214 4.18261 12.5488 3.47524 11.953 2.8794C11.3571 2.28356 10.6497 1.81091 9.87124 1.48844C9.09274 1.16597 8.25834 1 7.41569 1C6.57304 1 5.73864 1.16597 4.96014 1.48844C4.18163 1.81091 3.47426 2.28356 2.87842 2.8794C2.28258 3.47524 1.80993 4.18261 1.48746 4.96111C1.165 5.73962 0.999023 6.57402 0.999023 7.41667Z" stroke="black" stroke-width="1.33" stroke-linecap="round" stroke-linejoin="round"/>
</svg>
