<svg width="100" height="100" viewBox="0 0 100 100" fill="none" xmlns="http://www.w3.org/2000/svg">
<circle cx="50" cy="50" r="50" fill="#ECD71D" fill-opacity="0.2"/>
<path fill-rule="evenodd" clip-rule="evenodd" d="M40 30C37.3478 30 34.8043 31.0536 32.9289 32.9289C31.0536 34.8043 30 37.3478 30 40L30 60C30 62.6522 31.0536 65.1957 32.9289 67.0711C34.8043 68.9464 37.3478 70 40 70H60C62.6522 70 65.1957 68.9464 67.0711 67.0711C68.9464 65.1957 70 62.6522 70 60V40C70 37.3478 68.9464 34.8043 67.0711 32.9289C65.1957 31.0536 62.6522 30 60 30H40ZM58.2325 38.23C56.8326 37.5602 55.2594 37.3412 53.7298 37.603C52.2002 37.8649 50.7895 38.5948 49.6922 39.6922C48.5948 40.7895 47.8649 42.2002 47.603 43.7298C47.3412 45.2594 47.5602 46.8326 48.23 48.2325L38.23 58.2325C37.7612 58.7016 37.498 59.3377 37.4982 60.0009C37.4985 60.6641 37.7621 61.3 38.2312 61.7688C38.7004 62.2375 39.3365 62.5007 39.9996 62.5005C40.6628 62.5003 41.2987 62.2366 41.7675 61.7675L51.7675 51.7675C53.1674 52.4373 54.7406 52.6563 56.2702 52.3945C57.7998 52.1326 59.2105 51.4027 60.3078 50.3053C61.4052 49.208 62.1351 47.7973 62.397 46.2677C62.6588 44.7381 62.4398 43.1649 61.77 41.765L56.77 46.7675C56.3012 47.2366 55.6653 47.5003 55.0021 47.5005C54.339 47.5007 53.7029 47.2375 53.2337 46.7687C52.7646 46.3 52.501 45.6641 52.5007 45.0009C52.5005 44.3377 52.7637 43.7016 53.2325 43.2325L58.2325 38.23Z" fill="#ECD71D"/>
</svg>
