<svg width="37" height="34" viewBox="0 0 37 34" fill="none" xmlns="http://www.w3.org/2000/svg">
<path d="M15.0469 7.33334C15.0469 4.16668 13.0469 1.33334 10.0469 0.333344V6.50001H5.04687V0.333344C2.04687 1.33334 0.046875 4.16668 0.046875 7.33334C0.046875 10.5 2.04687 13.3333 5.04687 14.3333V32.6667C5.04687 33.3333 5.38021 33.6667 5.88021 33.6667H9.21354C9.71354 33.6667 10.0469 33.3333 10.0469 32.8333V14.5C13.0469 13.5 15.0469 10.6667 15.0469 7.33334ZM25.0469 10.3333C18.5469 10.5 13.3802 15.6667 13.3802 22C13.3802 28.5 18.5469 33.6667 25.0469 33.6667C31.5469 33.6667 36.7135 28.5 36.7135 22C36.7135 15.5 31.5469 10.3333 25.0469 10.3333ZM25.0469 30.3333C20.3802 30.3333 16.7135 26.6667 16.7135 22C16.7135 17.3333 20.3802 13.6667 25.0469 13.6667C29.7135 13.6667 33.3802 17.3333 33.3802 22C33.3802 26.6667 29.7135 30.3333 25.0469 30.3333ZM23.3802 15.3333V23.6667L29.3802 27.3333L30.7135 25.3333L25.8802 22.5V15.3333H23.3802Z" fill="black"/>
</svg>
