<svg width="34" height="36" viewBox="0 0 34 36" fill="none" xmlns="http://www.w3.org/2000/svg">
<path d="M31.95 8.33594L18.2 0.812497C17.8326 0.609501 17.4197 0.503021 17 0.503021C16.5803 0.503021 16.1674 0.609501 15.8 0.812497L2.05 8.33906C1.65733 8.55391 1.32954 8.87025 1.10086 9.25504C0.872188 9.63983 0.751016 10.079 0.75 10.5266V25.4703C0.751016 25.9179 0.872188 26.357 1.10086 26.7418C1.32954 27.1266 1.65733 27.443 2.05 27.6578L15.8 35.1844C16.1674 35.3874 16.5803 35.4938 17 35.4938C17.4197 35.4938 17.8326 35.3874 18.2 35.1844L31.95 27.6578C32.3427 27.443 32.6705 27.1266 32.8991 26.7418C33.1278 26.357 33.249 25.9179 33.25 25.4703V10.5281C33.2498 10.0797 33.129 9.63961 32.9003 9.25393C32.6716 8.86824 32.3434 8.55117 31.95 8.33594ZM17 3L29.5531 9.875L24.9016 12.4219L12.3469 5.54687L17 3ZM17 16.75L4.44687 9.875L9.74375 6.975L22.2969 13.85L17 16.75ZM3.25 12.0625L15.75 18.9031V32.3078L3.25 25.4719V12.0625ZM30.75 25.4656L18.25 32.3078V18.9094L23.25 16.1734V21.75C23.25 22.0815 23.3817 22.3995 23.6161 22.6339C23.8505 22.8683 24.1685 23 24.5 23C24.8315 23 25.1495 22.8683 25.3839 22.6339C25.6183 22.3995 25.75 22.0815 25.75 21.75V14.8047L30.75 12.0625V25.4641V25.4656Z" fill="black"/>
</svg>
