<svg width="22" height="22" viewBox="0 0 22 22" fill="none" xmlns="http://www.w3.org/2000/svg">
<path d="M10.835 10.835C9.34519 10.835 8.06982 10.3045 7.00889 9.24361C5.94796 8.18268 5.4175 6.90731 5.4175 5.4175C5.4175 3.92769 5.94796 2.65232 7.00889 1.59139C8.06982 0.530464 9.34519 0 10.835 0C12.3248 0 13.6002 0.530464 14.6611 1.59139C15.722 2.65232 16.2525 3.92769 16.2525 5.4175C16.2525 6.90731 15.722 8.18268 14.6611 9.24361C13.6002 10.3045 12.3248 10.835 10.835 10.835ZM0 21.67V17.8778C0 17.1103 0.197739 16.4046 0.593217 15.7609C0.988694 15.1171 1.51329 14.6263 2.167 14.2887C3.56652 13.5889 4.98862 13.0639 6.43328 12.7135C7.87795 12.3632 9.34519 12.1885 10.835 12.1894C12.3248 12.1894 13.7921 12.3645 15.2367 12.7149C16.6814 13.0652 18.1035 13.5898 19.503 14.2887C20.1576 14.6273 20.6827 15.1184 21.0781 15.7622C21.4736 16.406 21.6709 17.1112 21.67 17.8778V21.67H0Z" fill="#989798"/>
</svg>
