<svg width="25" height="23" viewBox="0 0 25 23" fill="none" xmlns="http://www.w3.org/2000/svg">
<path d="M2 11.3333H3.16667M3.16667 11.3333H21.8333M3.16667 11.3333V13.6667C3.16667 14.9943 3.84683 17.456 6.36917 18.1478M21.8333 11.3333C22.1428 11.3333 22.4395 11.2104 22.6583 10.9916C22.8771 10.7728 23 10.4761 23 10.1667V5.5C23 4.33333 22.3 2 19.5 2C16.7 2 16 4.33333 16 5.5M21.8333 11.3333V13.6667C21.8333 14.9943 21.1532 17.456 18.6308 18.1478M16 5.5H13.6667M16 5.5H18.3333M18.6308 18.1478C18.1533 18.2752 17.6608 18.3376 17.1667 18.3333H7.83333C7.28733 18.3333 6.80083 18.2668 6.36917 18.1478M18.6308 18.1478L19.5 20.6667M6.36917 18.1478L5.5 20.6667" stroke="#363537" stroke-opacity="0.5" stroke-width="3.33333" stroke-linecap="round" stroke-linejoin="round"/>
</svg>
