<svg width="35" height="35" viewBox="0 0 35 35" fill="none" xmlns="http://www.w3.org/2000/svg">
<circle cx="17.501" cy="17.5" r="17.25" fill="#D9D9D9" stroke="black" stroke-width="0.5"/>
<path d="M13.5585 10.3349C13.3435 10.5499 13.2227 10.8415 13.2227 11.1455C13.2227 11.4495 13.3434 11.741 13.5583 11.9561L19.2329 17.6317L13.5573 23.3063C13.3484 23.5225 13.2329 23.8121 13.2354 24.1127C13.238 24.4133 13.3586 24.7009 13.5711 24.9135C13.7837 25.126 14.0712 25.2466 14.3718 25.2493C14.6724 25.2519 14.962 25.1364 15.1783 24.9276L21.6645 18.4425C21.8795 18.2275 22.0003 17.9359 22.0003 17.6319C22.0003 17.3279 21.8796 17.0363 21.6647 16.8213L15.1796 10.3351C14.9646 10.1201 14.6731 9.99935 14.3691 9.99932C14.065 9.99929 13.7735 10.12 13.5585 10.3349Z" fill="black"/>
</svg>
