<svg width="41" height="29" viewBox="0 0 41 29" fill="none" xmlns="http://www.w3.org/2000/svg">
<path d="M10.9632 19.5833L7.46322 16C9.1021 14.3611 11.026 13.0628 13.2349 12.105C15.4438 11.1472 17.8254 10.6678 20.3799 10.6667C22.9354 10.6667 25.3177 11.1528 27.5265 12.125C29.7354 13.0972 31.6588 14.4167 33.2965 16.0833L29.7965 19.5833C28.5743 18.3611 27.1577 17.4028 25.5465 16.7083C23.9354 16.0139 22.2132 15.6667 20.3799 15.6667C18.5465 15.6667 16.8243 16.0139 15.2132 16.7083C13.6021 17.4028 12.1854 18.3611 10.9632 19.5833ZM3.87988 12.5L0.379883 8.99999C2.93544 6.38888 5.92155 4.34721 9.33822 2.87499C12.7549 1.40277 16.4354 0.666656 20.3799 0.666656C24.3243 0.666656 28.0049 1.40277 31.4215 2.87499C34.8382 4.34721 37.8243 6.38888 40.3799 8.99999L36.8799 12.5C34.741 10.3611 32.2615 8.68721 29.4415 7.47832C26.6215 6.26943 23.601 5.66555 20.3799 5.66666C17.1577 5.66666 14.1365 6.2711 11.3165 7.47999C8.49655 8.68888 6.01766 10.3622 3.87988 12.5ZM20.3799 29L26.2549 23.0833C25.5049 22.3333 24.6299 21.7428 23.6299 21.3117C22.6299 20.8805 21.5465 20.6655 20.3799 20.6667C19.2132 20.6667 18.1299 20.8822 17.1299 21.3133C16.1299 21.7444 15.2549 22.3344 14.5049 23.0833L20.3799 29Z" fill="black"/>
</svg>
