<svg width="19" height="20" viewBox="0 0 19 20" fill="none" xmlns="http://www.w3.org/2000/svg">
<path d="M0 0H9.82221V20H0V0ZM8.48887 1.33334H1.33332V18.6667H8.48887V1.33334ZM8.48887 0H18.3111V20H8.48885L8.48887 0ZM16.9778 1.33334H9.82221V18.6667H16.9778V1.33334ZM6.61331 4.72891H3.21776V3.39555H6.61331V4.72891ZM6.61331 8.12444H3.21776V6.79112H6.61331V8.12444ZM15.0933 4.72891H11.6978V3.39555H15.0933V4.72891ZM15.0933 8.12444H11.6978V6.79112H15.0933V8.12444ZM1.99543e-05 10.1778H6.42668V16.6044H0L1.99543e-05 10.1778ZM5.09336 11.5111H1.3333V15.2711H5.0933L5.09336 11.5111ZM8.48889 10.1778H14.9155V16.6044H8.48887L8.48889 10.1778ZM13.5822 11.5111H9.82221V15.2711H13.5822L13.5822 11.5111Z" fill="#AAB8C2"/>
</svg>
