<svg width="24" height="24" viewBox="0 0 24 24" fill="none" xmlns="http://www.w3.org/2000/svg">
<path d="M18.8416 15.296C19.2496 15.3812 19.6746 15.3049 20.0275 15.0832C20.3803 14.8614 20.6335 14.5115 20.7336 14.107V14.106C20.7844 13.9007 20.7943 13.6875 20.7626 13.4784C20.731 13.2693 20.6584 13.0685 20.5491 12.8875C20.4398 12.7065 20.2959 12.5488 20.1256 12.4235C19.9553 12.2981 19.7619 12.2076 19.5566 12.157L14.9806 11.024L9.82463 4.20999L7.60063 3.98499L10.5316 10.574L6.08263 10.125L3.77062 6.29599L2.39062 6.60599L3.63063 12.126L18.8416 15.296ZM2.99962 18H20.9996V20H2.99962V18Z" fill="black"/>
</svg>
