<svg width="19" height="19" viewBox="0 0 19 19" fill="none" xmlns="http://www.w3.org/2000/svg">
<path d="M9.5 6.59818C11.1026 6.59818 12.4018 7.89738 12.4018 9.5C12.4018 11.1026 11.1026 12.4018 9.5 12.4018C7.89739 12.4018 6.5982 11.1026 6.5982 9.5C6.60016 7.89817 7.89817 6.60014 9.49983 6.59818H9.5ZM9.5 11.5382C10.6257 11.5382 11.5382 10.6257 11.5382 9.5C11.5382 8.37434 10.6257 7.46182 9.5 7.46182C8.37436 7.46182 7.46184 8.37434 7.46184 9.5C7.46333 10.6251 8.37495 11.5367 9.49989 11.5382H9.50004H9.5ZM9.4957 15.7458H9.47835C6.04079 15.7458 3.25412 12.9592 3.25412 9.52162C3.25412 6.08406 6.04079 3.29739 9.47835 3.29739C12.9159 3.29739 15.7026 6.08406 15.7026 9.52162C15.7026 10.5095 15.4724 11.4436 15.0628 12.2733L15.0791 12.2369V12.242C14.7705 12.8482 14.1513 13.2561 13.4367 13.2561C13.4278 13.2561 13.4189 13.2561 13.4101 13.2559H13.4114C12.3782 13.2535 11.5416 12.4154 11.5416 11.3819V6.20005H12.4053V11.3819C12.4053 11.9399 12.8577 12.3923 13.4157 12.3923C13.4206 12.3924 13.4263 12.3925 13.4321 12.3925C13.8122 12.3925 14.1418 12.1761 14.3044 11.8598L14.307 11.8543C14.6386 11.179 14.8327 10.3844 14.8327 9.54461C14.8327 6.5969 12.4431 4.20731 9.49536 4.20731C6.54767 4.20731 4.15811 6.59688 4.15811 9.54455C4.15811 12.4923 6.54769 14.8818 9.49536 14.8818C10.1909 14.8818 10.8553 14.7488 11.4646 14.5068L11.4285 14.5194L11.7403 15.3243C11.0747 15.5908 10.3033 15.7455 9.49579 15.7458H9.49566L9.4957 15.7458ZM3.73094 0H15.2691C17.3286 0.00244922 18.9976 1.67137 19 3.73068V15.2691C18.9976 17.3286 17.3286 18.9976 15.2693 19H3.7309C1.67137 18.9975 0.00244922 17.3286 0 15.2693V3.73092C0.00244922 1.67135 1.67137 0.00244922 3.73068 0H3.73092H3.73094ZM15.2691 18.1364C16.8519 18.1344 18.1344 16.8519 18.1364 15.2693V3.73092C18.1344 2.14817 16.8519 0.865613 15.2693 0.863665H3.73094C2.14819 0.865613 0.865632 2.14815 0.863684 3.73074V15.2691C0.865632 16.8518 2.14817 18.1344 3.73075 18.1364H3.73094L15.2691 18.1364Z" fill="#AAB8C2"/>
</svg>
