<svg width="15" height="22" viewBox="0 0 15 22" fill="none" xmlns="http://www.w3.org/2000/svg">
<path d="M2.41001 0H11.95C13.2803 0.00171875 14.3583 1.07967 14.36 2.40984V19.59C14.3583 20.9203 13.2803 21.9983 11.9502 22H2.41001C1.0797 21.9983 0.00171875 20.9203 0 19.5902V2.40999C0.00171875 1.07967 1.0797 0.00171875 2.40986 0H2.41003H2.41001ZM11.95 21C12.7283 20.9989 13.3589 20.3683 13.36 19.5901V2.41001C13.3589 1.63174 12.7283 1.00115 11.9501 0.999989H2.40999C1.63174 1.00115 1.00115 1.63174 1.00001 2.4099V19.59C1.00115 20.3683 1.63174 20.9989 2.4099 21H2.41003H11.95ZM4.32001 0.500005H10.05V1.49997C10.05 2.05227 9.60226 2.49998 9.05001 2.49998H5.27001C4.71773 2.49998 4.27002 2.05225 4.27002 1.49999V0.500027L4.32001 0.500005ZM8.13 19.14H6.23001V18.14H8.13V19.14Z" fill="#AAB8C2"/>
</svg>
