<svg width="17" height="20" viewBox="0 0 17 20" fill="none" xmlns="http://www.w3.org/2000/svg">
<path d="M16.6783 20H0V0H16.6783V20ZM1.73912 18.2609H14.9391V1.73914H1.73912V18.2609ZM5.01738 10.0435H3.3565V8.30436H5.01738V10.0435ZM13.3217 10.0435H6.67826V8.30436H13.3217V10.0435ZM5.01738 13.3565H3.3565V11.6174H5.01738V13.3565ZM13.3217 13.3565H6.67826V11.6174H13.3217V13.3565ZM5.01738 16.6783H3.3565V14.9391H5.01738V16.6783ZM13.3217 16.6783H6.67826V14.9391H13.3217V16.6783ZM12.487 5.88695H4.19129V4.14783H12.4869L12.487 5.88695ZM6.72174 6.67826H4.98262V3.35652H6.72174V6.67826ZM11.6956 6.67826H9.95652V3.35652H11.6956V6.67826Z" fill="#AAB8C2"/>
</svg>
