<svg width="100" height="100" viewBox="0 0 100 100" fill="none" xmlns="http://www.w3.org/2000/svg">
<path d="M50.5 33C47.0388 33 43.6554 34.0264 40.7775 35.9493C37.8997 37.8722 35.6566 40.6053 34.3321 43.803C33.0076 47.0007 32.661 50.5194 33.3363 53.9141C34.0115 57.3087 35.6782 60.4269 38.1256 62.8744C40.5731 65.3218 43.6913 66.9885 47.0859 67.6637C50.4806 68.339 53.9993 67.9924 57.197 66.6679C60.3947 65.3434 63.1278 63.1003 65.0507 60.2225C66.9737 57.3446 68 53.9612 68 50.5C68 45.8587 66.1563 41.4075 62.8744 38.1256C59.5925 34.8437 55.1413 33 50.5 33ZM50.5 40.5C50.8708 40.5 51.2334 40.61 51.5417 40.816C51.85 41.022 52.0904 41.3149 52.2323 41.6575C52.3742 42.0001 52.4113 42.3771 52.339 42.7408C52.2666 43.1045 52.0881 43.4386 51.8258 43.7008C51.5636 43.963 51.2295 44.1416 50.8658 44.214C50.5021 44.2863 50.1251 44.2492 49.7825 44.1073C49.4399 43.9654 49.147 43.725 48.941 43.4167C48.735 43.1084 48.625 42.7458 48.625 42.375C48.625 41.8777 48.8226 41.4008 49.1742 41.0492C49.5258 40.6975 50.0027 40.5 50.5 40.5ZM55.5 60.6562H45.5V57.8438H49.0938V50.6562H46.75V47.8438H51.9063V57.8438H55.5V60.6562Z" fill="#FE3E32"/>
<circle cx="50" cy="50" r="50" fill="#FE3E32" fill-opacity="0.2"/>
</svg>
