<svg width="36" height="36" viewBox="0 0 36 36" fill="none" xmlns="http://www.w3.org/2000/svg">
<circle cx="18.1793" cy="17.8267" r="17.25" transform="rotate(178.94 18.1793 17.8267)" fill="#D9D9D9" stroke="black" stroke-width="0.5"/>
<path d="M21.4349 24.509C21.6458 24.2901 21.7612 23.9963 21.7556 23.6924C21.75 23.3884 21.6239 23.0991 21.405 22.8881L15.6264 17.3184L21.1961 11.5398C21.4009 11.3198 21.5111 11.0281 21.503 10.7276C21.4949 10.4271 21.369 10.1418 21.1526 9.93318C20.9361 9.72456 20.6464 9.6093 20.3458 9.61222C20.0452 9.61514 19.7578 9.73601 19.5454 9.9488L13.1802 16.5528C12.9693 16.7717 12.8539 17.0654 12.8595 17.3694C12.8651 17.6733 12.9912 17.9626 13.2101 18.1736L19.814 24.5388C20.0329 24.7498 20.3267 24.8651 20.6306 24.8595C20.9346 24.8539 21.2239 24.7278 21.4349 24.509Z" fill="black"/>
</svg>
